{
	"asset":{
		"generator":"Khronos glTF Blender I/O v5.0.21",
		"version":"2.0"
	},
	"extensionsUsed":[
		"KHR_materials_specular",
		"KHR_materials_ior"
	],
	"scene":0,
	"scenes":[
		{
			"name":"Scene",
			"nodes":[
				0
			]
		}
	],
	"nodes":[
		{
			"mesh":0,
			"name":"Moon",
			"rotation":[
				0.7071002125740051,
				0.00305740418843925,
				-0.00305740418843925,
				0.7071002125740051
			]
		}
	],
	"materials":[
		{
			"extensions":{
				"KHR_materials_specular":{
					"specularFactor":0.20000000298023224
				},
				"KHR_materials_ior":{
					"ior":1.4500000476837158
				}
			},
			"name":"lroc_color_poles_8k",
			"pbrMetallicRoughness":{
				"baseColorTexture":{
					"index":0
				},
				"metallicFactor":0,
				"roughnessFactor":0.8100000023841858
			}
		}
	],
	"meshes":[
		{
			"name":"lroc_color_poles_8k",
			"primitives":[
				{
					"attributes":{
						"POSITION":0,
						"NORMAL":1,
						"TEXCOORD_0":2
					},
					"indices":3,
					"material":0
				}
			]
		}
	],
	"textures":[
		{
			"sampler":0,
			"source":0
		}
	],
	"images":[
		{
			"mimeType":"image/png",
			"name":"lroc_color_poles_hd",
			"uri":"lroc_color_poles_hd.png"
		}
	],
	"accessors":[
		{
			"bufferView":0,
			"componentType":5126,
			"count":4151,
			"max":[
				0.49988335371017456,
				0.5000017881393433,
				0.4999965727329254
			],
			"min":[
				-0.5001166462898254,
				-0.49999821186065674,
				-0.500003457069397
			],
			"type":"VEC3"
		},
		{
			"bufferView":1,
			"componentType":5126,
			"count":4151,
			"type":"VEC3"
		},
		{
			"bufferView":2,
			"componentType":5126,
			"count":4151,
			"type":"VEC2"
		},
		{
			"bufferView":3,
			"componentType":5123,
			"count":23766,
			"type":"SCALAR"
		}
	],
	"bufferViews":[
		{
			"buffer":0,
			"byteLength":49812,
			"byteOffset":0,
			"target":34962
		},
		{
			"buffer":0,
			"byteLength":49812,
			"byteOffset":49812,
			"target":34962
		},
		{
			"buffer":0,
			"byteLength":33208,
			"byteOffset":99624,
			"target":34962
		},
		{
			"buffer":0,
			"byteLength":47532,
			"byteOffset":132832,
			"target":34963
		}
	],
	"samplers":[
		{
			"magFilter":9729,
			"minFilter":9987,
			"wrapS":33071,
			"wrapT":33071
		}
	],
	"buffers":[
		{
			"byteLength":180364,
			"uri":"luna.bin"
		}
	]
}
