{
	"asset":{
		"generator":"Khronos glTF Blender I/O v5.0.21",
		"version":"2.0"
	},
	"extensionsUsed":[
		"KHR_materials_transmission",
		"KHR_materials_specular",
		"KHR_materials_ior"
	],
	"scene":0,
	"scenes":[
		{
			"name":"Scene",
			"nodes":[
				0
			]
		}
	],
	"nodes":[
		{
			"mesh":0,
			"name":"Earth",
			"rotation":[
				0,
				0,
				-0.20509397983551025,
				0.9787423014640808
			]
		}
	],
	"materials":[
		{
			"alphaMode":"BLEND",
			"doubleSided":true,
			"extensions":{
				"KHR_materials_transmission":{
					"transmissionFactor":0.30000001192092896
				},
				"KHR_materials_specular":{
					"specularColorFactor":[
						1.2000000476837158,
						1.2000000476837158,
						1.2000000476837158
					]
				},
				"KHR_materials_ior":{
					"ior":1.4500000476837158
				}
			},
			"name":"Earth_Diffuse_6K.006",
			"normalTexture":{
				"index":0,
				"scale":0.6000000238418579
			},
			"pbrMetallicRoughness":{
				"baseColorTexture":{
					"index":1
				},
				"metallicFactor":0,
				"metallicRoughnessTexture":{
					"index":2
				}
			}
		}
	],
	"meshes":[
		{
			"name":"Earth_Diffuse_6K.003",
			"primitives":[
				{
					"attributes":{
						"POSITION":0,
						"NORMAL":1,
						"TEXCOORD_0":2
					},
					"indices":3,
					"material":0
				}
			]
		}
	],
	"textures":[
		{
			"sampler":0,
			"source":0
		},
		{
			"sampler":1,
			"source":1
		},
		{
			"sampler":1,
			"source":2
		}
	],
	"images":[
		{
			"mimeType":"image/jpeg",
			"name":"Earth_NormalNRM_6K",
			"uri":"Earth_NormalNRM_6K.jpg"
		},
		{
			"mimeType":"image/png",
			"name":"Earth_Diffuse_6K",
			"uri":"Earth_Diffuse_6K.png"
		},
		{
			"mimeType":"image/png",
			"name":"Earth_Glossiness_6K",
			"uri":"Earth_Glossiness_6K.png"
		}
	],
	"accessors":[
		{
			"bufferView":0,
			"componentType":5126,
			"count":3942,
			"max":[
				0.5000239610671997,
				0.5004211068153381,
				0.4999094009399414
			],
			"min":[
				-0.4999760389328003,
				-0.49957895278930664,
				-0.5000905990600586
			],
			"type":"VEC3"
		},
		{
			"bufferView":1,
			"componentType":5126,
			"count":3942,
			"type":"VEC3"
		},
		{
			"bufferView":2,
			"componentType":5126,
			"count":3942,
			"type":"VEC2"
		},
		{
			"bufferView":3,
			"componentType":5123,
			"count":21126,
			"type":"SCALAR"
		}
	],
	"bufferViews":[
		{
			"buffer":0,
			"byteLength":47304,
			"byteOffset":0,
			"target":34962
		},
		{
			"buffer":0,
			"byteLength":47304,
			"byteOffset":47304,
			"target":34962
		},
		{
			"buffer":0,
			"byteLength":31536,
			"byteOffset":94608,
			"target":34962
		},
		{
			"buffer":0,
			"byteLength":42252,
			"byteOffset":126144,
			"target":34963
		}
	],
	"samplers":[
		{
			"magFilter":9729,
			"minFilter":9987
		},
		{
			"magFilter":9729,
			"minFilter":9987,
			"wrapS":33071,
			"wrapT":33071
		}
	],
	"buffers":[
		{
			"byteLength":168396,
			"uri":"tierra.bin"
		}
	]
}
